<svg version="1.1" id="Layer_1" xmlns="http://www.w3.org/2000/svg" xmlns:xlink="http://www.w3.org/1999/xlink" x="0px" y="0px"
	 width="100%" viewBox="0 0 1572 654" enable-background="new 0 0 1572 654" xml:space="preserve">
<path fill="#FFFFFF" opacity="1.000000" stroke="none" 
	d="
M316.000000,0.999999 
	C735.000000,1.000000 1154.000000,1.000000 1573.000000,1.000000 
	C1573.000000,48.779091 1573.000000,96.431602 1572.567139,144.542145 
	C1570.067261,145.333328 1568.011597,145.788712 1565.931519,145.979324 
	C1554.489624,147.027786 1543.026367,147.864639 1531.599731,149.054321 
	C1517.117432,150.562119 1502.671143,152.410980 1488.194458,153.974899 
	C1477.764160,155.101654 1467.303833,155.950867 1456.874878,157.088226 
	C1455.864258,157.198441 1454.389160,158.301529 1454.125000,159.227737 
	C1448.664673,178.363388 1443.340576,197.537964 1438.006836,216.709641 
	C1431.720093,239.306702 1425.426025,261.901764 1419.179565,284.509979 
	C1413.750244,304.159912 1408.633423,323.900208 1402.910767,343.463776 
	C1398.150391,359.738159 1394.774048,376.444427 1386.292847,391.558807 
	C1379.662964,403.373993 1371.482910,413.620850 1360.683350,421.606842 
	C1351.425293,428.453094 1340.444458,431.334045 1329.163452,431.768738 
	C1323.551880,431.984924 1317.658203,430.774963 1312.891724,426.513733 
	C1303.650879,418.252411 1302.598022,407.355621 1304.461060,396.604431 
	C1307.082397,381.477203 1311.353271,366.627655 1315.100586,351.705078 
	C1332.364990,282.955536 1349.692627,214.221924 1367.099243,145.078476 
	C1327.652832,149.146866 1288.607788,153.173843 1249.407104,157.216888 
	C1249.124146,158.463013 1248.898926,159.714539 1248.554565,160.932388 
	C1243.054199,180.388229 1237.450317,199.815262 1232.047607,219.298141 
	C1224.611450,246.113892 1217.354858,272.979401 1209.963501,299.807678 
	C1205.022339,317.742493 1200.141357,335.696533 1194.922607,353.551147 
	C1191.889526,363.927917 1189.351440,374.676758 1184.584473,384.260345 
	C1178.936768,395.614441 1171.079712,405.710297 1160.816650,413.841705 
	C1142.274780,428.532410 1121.821045,434.945953 1098.389282,429.936798 
	C1086.685303,427.434784 1078.811523,416.565948 1081.134888,405.443573 
	C1084.179565,390.868500 1087.735962,376.384766 1091.561890,361.991882 
	C1098.169922,337.132324 1105.237793,312.395325 1111.957764,287.565033 
	C1118.214722,264.446045 1124.170898,241.245667 1130.440552,218.130249 
	C1137.174194,193.304596 1144.182007,168.553482 1150.955200,143.738449 
	C1159.603638,112.053177 1168.152832,80.340729 1176.702515,48.628609 
	C1177.975098,43.908390 1179.016846,39.125927 1180.296143,33.830952 
	C1138.334473,38.309742 1097.343628,42.684902 1056.356567,47.059647 
	C1053.186157,58.556736 1050.049438,69.761452 1047.009399,80.992378 
	C1040.963501,103.328499 1035.011108,125.690010 1028.943726,148.020279 
	C1023.683655,167.378891 1018.283081,186.699280 1013.008057,206.053894 
	C1006.966309,228.221725 1000.995667,250.408936 994.992249,272.587250 
	C989.327332,293.515106 983.675598,314.446564 977.988037,335.368286 
	C974.466431,348.322601 971.520874,361.478088 967.180054,374.154022 
	C961.442139,390.910095 951.069336,404.737854 936.938599,415.523621 
	C918.952026,429.252441 898.902283,434.893311 876.470276,429.938507 
	C866.851929,427.814026 859.417419,420.243469 859.797668,409.414673 
	C860.141418,399.625946 862.258179,390.447083 864.843994,381.113556 
	C876.723572,338.233765 888.272156,295.262085 899.886475,252.309036 
	C910.234314,214.039902 920.493347,175.746765 930.827271,137.473862 
	C939.094177,106.856667 947.432434,76.258751 955.688416,45.638634 
	C956.679932,41.961445 957.354797,38.198898 958.309692,33.872337 
	C916.530823,38.322842 875.553101,42.687996 834.635925,47.046707 
	C834.070496,48.738453 833.488525,50.221062 833.077332,51.749603 
	C828.368347,69.253426 823.730591,86.776505 818.983887,104.270035 
	C813.052490,126.129272 807.009705,147.958252 801.066101,169.814194 
	C795.673157,189.645004 790.379639,209.502884 784.986023,229.333527 
	C779.041687,251.189484 773.000854,273.019226 767.062073,294.876678 
	C761.334045,315.958344 755.813538,337.097412 749.934509,358.136536 
	C747.504272,366.833588 745.351257,375.821167 741.363770,383.825562 
	C733.175232,400.263123 720.963562,413.562439 704.788757,422.517914 
	C688.072937,431.772980 670.217896,434.559875 651.592468,428.955261 
	C644.891113,426.938721 639.744934,422.617035 639.149048,415.365631 
	C638.567871,408.293640 638.078491,400.810669 639.720032,394.034088 
	C644.897522,372.660736 651.153931,351.550385 656.882263,330.308472 
	C666.572510,294.374695 676.201965,258.424408 685.809814,222.468491 
	C690.891846,203.449677 695.874146,184.404205 700.960388,165.147919 
	C660.638550,165.147919 620.664612,165.147919 580.304382,165.147919 
	C579.796997,167.250275 579.333862,169.423019 578.747131,171.561844 
	C570.186035,202.767090 561.513916,233.942215 553.059631,265.176300 
	C543.420288,300.788422 533.853333,336.421082 524.484741,372.105164 
	C518.951965,393.179077 514.564148,414.347809 518.905029,436.408600 
	C522.209656,453.203400 530.108704,467.121033 543.391479,477.655731 
	C559.880859,490.733673 579.601807,494.810486 600.014832,495.878357 
	C607.903015,496.291016 615.861084,495.280182 623.790527,495.012848 
	C636.914490,494.570343 649.596924,491.733521 662.113464,488.021942 
	C690.861145,479.497375 715.737427,464.557739 736.568420,442.942810 
	C737.858765,441.603882 739.233093,440.346008 740.667725,438.954102 
	C741.348938,439.936890 741.773987,440.298615 741.878174,440.736603 
	C746.511963,460.222504 757.570557,474.635559 775.320312,484.111267 
	C787.605164,490.669525 800.653015,493.593201 814.401306,495.218781 
	C829.523865,497.006866 844.425903,495.763245 859.225403,493.707916 
	C874.461731,491.591858 889.286621,487.330627 903.463562,481.040558 
	C918.887390,474.197205 933.270569,465.752167 945.933838,454.538239 
	C951.578918,449.539307 957.096680,444.396637 962.825562,439.179474 
	C963.265076,440.653046 963.654358,441.884491 963.999878,443.128174 
	C967.690186,456.410400 974.655701,467.876556 985.239685,476.492889 
	C1002.337341,490.411865 1022.875671,495.082916 1044.402832,495.950684 
	C1059.739014,496.568878 1074.945435,495.081970 1089.996338,492.013947 
	C1110.190552,487.897491 1129.521240,481.268494 1146.599609,469.656311 
	C1159.950562,460.578552 1172.405762,450.182983 1185.010742,440.562439 
	C1185.110840,440.887238 1185.583130,442.369965 1186.025391,443.861542 
	C1190.049072,457.434662 1197.391357,469.043915 1208.489136,477.667358 
	C1225.318359,490.744293 1245.302368,495.466766 1266.107178,495.778198 
	C1279.029785,495.971680 1292.120728,494.841980 1304.890869,492.784424 
	C1321.147461,490.165009 1336.471191,484.217865 1350.398560,475.182373 
	C1357.258545,470.731964 1363.950562,466.022797 1371.572754,460.851105 
	C1369.430542,468.420471 1367.328369,475.038391 1365.747803,481.778625 
	C1364.972046,485.087006 1362.835083,486.243530 1360.118042,486.921570 
	C1353.045166,488.686798 1345.913574,490.219360 1338.850220,492.020142 
	C1311.837524,498.906769 1284.871582,506.099976 1260.572632,520.303894 
	C1252.887207,524.796387 1245.441040,530.263733 1239.248535,536.614197 
	C1229.708740,546.397461 1223.752075,558.189453 1221.714111,572.256409 
	C1218.760254,592.646179 1223.354248,610.369507 1237.676514,625.028503 
	C1253.353516,641.073853 1273.165894,649.247742 1294.986816,653.071899 
	C1295.747192,653.205078 1296.332886,654.334778 1297.000000,655.000000 
	C865.101868,655.000000 433.203766,655.000000 1.000000,655.000000 
	C1.000000,499.305420 1.000000,343.610657 1.363916,187.574112 
	C2.119608,187.743561 2.769819,188.210693 2.865694,188.772430 
	C5.968607,206.952591 16.821730,219.156860 33.371174,225.830139 
	C42.885059,229.666473 53.145981,232.079788 63.297451,233.776718 
	C72.287544,235.279495 81.591370,234.905411 91.940102,235.418579 
	C90.561028,232.634384 89.789734,231.101776 89.040016,229.558685 
	C87.342857,226.065506 85.308182,222.689972 84.024033,219.050247 
	C77.457817,200.439178 79.023895,181.355606 82.404449,162.591995 
	C85.797104,143.761307 93.638504,126.454887 105.016525,110.910248 
	C119.487732,91.139732 137.763657,75.719063 159.182663,64.001366 
	C175.874191,54.869934 193.196487,46.968304 211.795090,42.801918 
	C229.376022,38.863506 247.158905,35.531681 265.021484,33.255302 
	C275.866638,31.873209 287.032379,33.089809 298.052460,32.976021 
	C311.078186,32.841526 323.849182,34.715347 336.365784,38.063141 
	C354.043732,42.791420 370.292480,49.988514 382.340729,64.734596 
	C396.230682,81.734657 398.961182,100.743767 393.233673,121.281563 
	C386.959045,143.781174 374.198486,162.078934 356.430237,177.194489 
	C341.822906,189.621048 325.605957,198.917511 306.983887,203.350769 
	C295.961578,205.974808 284.595490,207.154602 272.315369,209.158188 
	C285.675812,159.472275 298.576355,111.496750 311.664124,62.824978 
	C302.032745,63.633163 293.686066,64.152977 285.382904,65.068146 
	C268.479492,66.931259 251.613327,69.135490 234.705688,70.956734 
	C220.522781,72.484467 206.300293,73.642296 192.101379,75.026009 
	C189.335510,75.295547 187.394699,76.005180 186.570251,79.587402 
	C184.032227,90.614952 180.848053,101.495918 177.832016,112.410934 
	C166.931793,151.858734 155.923248,191.276764 145.097580,230.744965 
	C134.698700,268.657227 124.478645,306.618500 114.175186,344.556976 
	C102.472420,387.647858 90.746910,430.732605 79.079002,473.832916 
	C77.494087,479.687469 76.185951,485.616943 74.630699,492.000000 
	C80.575363,492.000000 85.720444,492.000000 90.865532,492.000000 
	C124.027885,492.000000 157.190277,491.981018 190.352554,492.030212 
	C193.568924,492.035004 196.334885,492.183929 196.260300,487.607117 
	C196.227753,485.609039 197.446289,483.607361 197.998428,481.580536 
	C205.014923,455.823975 211.980820,430.053589 219.026398,404.304993 
	C225.302658,381.367920 231.700165,358.463959 237.973038,335.525970 
	C243.221939,316.332275 248.366028,297.109924 253.560501,277.901337 
	C256.798126,265.928986 260.043152,253.958603 263.246216,242.130035 
	C271.620544,241.390152 279.453796,240.349640 287.313446,240.081192 
	C300.824615,239.619690 314.334534,239.734131 327.609650,243.006638 
	C350.232666,248.583496 365.613861,262.246521 373.572144,284.131531 
	C381.042847,304.675812 380.278137,325.992401 377.701141,347.052155 
	C375.375824,366.055267 369.915527,384.437897 359.991699,401.176971 
	C352.336365,414.089600 342.529480,424.784027 329.179260,431.977295 
	C317.379944,438.334930 304.660461,439.610504 291.548706,439.023895 
	C281.754791,438.585693 272.721222,435.537994 264.371094,430.737518 
	C256.540466,426.235718 249.112701,421.033112 241.340469,416.031311 
	C235.475662,428.865173 230.367645,441.760315 230.928696,456.306488 
	C231.448929,469.794678 236.768875,480.377899 247.980545,488.011993 
	C264.236847,499.080963 282.888153,502.024597 301.783691,502.767883 
	C315.253448,503.297760 328.832611,501.980621 342.318756,500.924133 
	C359.131989,499.607056 375.090302,494.599884 390.424622,487.810516 
	C416.822723,476.122467 438.125183,457.816711 455.317596,434.968292 
	C472.181061,412.556976 483.352295,387.174957 489.848724,359.935486 
	C492.445557,349.046906 493.090851,337.707581 495.081360,326.655731 
	C497.317841,314.238251 495.742950,302.025238 493.365479,289.952759 
	C490.250885,274.137604 483.665894,259.888702 473.182007,247.315475 
	C463.636505,235.867630 452.113251,227.087296 438.744965,221.240814 
	C426.735931,215.988815 413.924469,212.571625 401.641266,208.404190 
	C401.796631,208.296432 402.591339,207.570572 403.520691,207.126297 
	C423.974609,197.348083 442.143219,184.610672 456.631317,166.907684 
	C473.821594,145.902969 483.674164,122.669167 480.058228,94.864258 
	C477.790009,77.422447 470.100189,62.640484 458.367950,49.995174 
	C443.279419,33.732285 424.242340,23.338697 403.576538,16.107199 
	C376.735779,6.714893 348.934814,2.281044 320.484406,1.959195 
	C318.986176,1.942246 317.494659,1.333328 316.000000,0.999999 
M729.656189,71.161865 
	C727.718384,61.330185 723.320129,52.614445 716.131836,45.778973 
	C700.362000,30.783129 681.342712,25.048082 659.637512,25.804871 
	C643.182495,26.378601 628.602966,31.163097 615.789185,41.104431 
	C601.312683,52.335674 592.877930,71.700005 598.880127,90.776711 
	C604.411438,108.357010 617.325928,118.290497 633.419739,124.944420 
	C648.257019,131.078796 663.826965,131.379822 679.358948,128.864578 
	C692.191040,126.786530 703.882568,121.454704 713.689636,112.737961 
	C725.842712,101.936127 731.376099,88.319580 729.656189,71.161865 
z"/>
<path fill="#004EEA" opacity="1.000000" stroke="none" 
	d="
M1297.468628,655.000000 
	C1296.332886,654.334778 1295.747192,653.205078 1294.986816,653.071899 
	C1273.165894,649.247742 1253.353516,641.073853 1237.676514,625.028503 
	C1223.354248,610.369507 1218.760254,592.646179 1221.714111,572.256409 
	C1223.752075,558.189453 1229.708740,546.397461 1239.248535,536.614197 
	C1245.441040,530.263733 1252.887207,524.796387 1260.572632,520.303894 
	C1284.871582,506.099976 1311.837524,498.906769 1338.850220,492.020142 
	C1345.913574,490.219360 1353.045166,488.686798 1360.118042,486.921570 
	C1362.835083,486.243530 1364.972046,485.087006 1365.747803,481.778625 
	C1367.328369,475.038391 1369.430542,468.420471 1371.572754,460.851105 
	C1363.950562,466.022797 1357.258545,470.731964 1350.398560,475.182373 
	C1336.471191,484.217865 1321.147461,490.165009 1304.890869,492.784424 
	C1292.120728,494.841980 1279.029785,495.971680 1266.107178,495.778198 
	C1245.302368,495.466766 1225.318359,490.744293 1208.489136,477.667358 
	C1197.391357,469.043915 1190.049072,457.434662 1186.025391,443.861542 
	C1185.583130,442.369965 1185.110840,440.887238 1185.010742,440.562439 
	C1172.405762,450.182983 1159.950562,460.578552 1146.599609,469.656311 
	C1129.521240,481.268494 1110.190552,487.897491 1089.996338,492.013947 
	C1074.945435,495.081970 1059.739014,496.568878 1044.402832,495.950684 
	C1022.875671,495.082916 1002.337341,490.411865 985.239685,476.492889 
	C974.655701,467.876556 967.690186,456.410400 963.999878,443.128174 
	C963.654358,441.884491 963.265076,440.653046 962.825562,439.179474 
	C957.096680,444.396637 951.578918,449.539307 945.933838,454.538239 
	C933.270569,465.752167 918.887390,474.197205 903.463562,481.040558 
	C889.286621,487.330627 874.461731,491.591858 859.225403,493.707916 
	C844.425903,495.763245 829.523865,497.006866 814.401306,495.218781 
	C800.653015,493.593201 787.605164,490.669525 775.320312,484.111267 
	C757.570557,474.635559 746.511963,460.222504 741.878174,440.736603 
	C741.773987,440.298615 741.348938,439.936890 740.667725,438.954102 
	C739.233093,440.346008 737.858765,441.603882 736.568420,442.942810 
	C715.737427,464.557739 690.861145,479.497375 662.113464,488.021942 
	C649.596924,491.733521 636.914490,494.570343 623.790527,495.012848 
	C615.861084,495.280182 607.903015,496.291016 600.014832,495.878357 
	C579.601807,494.810486 559.880859,490.733673 543.391479,477.655731 
	C530.108704,467.121033 522.209656,453.203400 518.905029,436.408600 
	C514.564148,414.347809 518.951965,393.179077 524.484741,372.105164 
	C533.853333,336.421082 543.420288,300.788422 553.059631,265.176300 
	C561.513916,233.942215 570.186035,202.767090 578.747131,171.561844 
	C579.333862,169.423019 579.796997,167.250275 580.304382,165.147919 
	C620.664612,165.147919 660.638550,165.147919 700.960388,165.147919 
	C695.874146,184.404205 690.891846,203.449677 685.809814,222.468491 
	C676.201965,258.424408 666.572510,294.374695 656.882263,330.308472 
	C651.153931,351.550385 644.897522,372.660736 639.720032,394.034088 
	C638.078491,400.810669 638.567871,408.293640 639.149048,415.365631 
	C639.744934,422.617035 644.891113,426.938721 651.592468,428.955261 
	C670.217896,434.559875 688.072937,431.772980 704.788757,422.517914 
	C720.963562,413.562439 733.175232,400.263123 741.363770,383.825562 
	C745.351257,375.821167 747.504272,366.833588 749.934509,358.136536 
	C755.813538,337.097412 761.334045,315.958344 767.062073,294.876678 
	C773.000854,273.019226 779.041687,251.189484 784.986023,229.333527 
	C790.379639,209.502884 795.673157,189.645004 801.066101,169.814194 
	C807.009705,147.958252 813.052490,126.129272 818.983887,104.270035 
	C823.730591,86.776505 828.368347,69.253426 833.077332,51.749603 
	C833.488525,50.221062 834.070496,48.738453 834.635925,47.046707 
	C875.553101,42.687996 916.530823,38.322842 958.309692,33.872337 
	C957.354797,38.198898 956.679932,41.961445 955.688416,45.638634 
	C947.432434,76.258751 939.094177,106.856667 930.827271,137.473862 
	C920.493347,175.746765 910.234314,214.039902 899.886475,252.309036 
	C888.272156,295.262085 876.723572,338.233765 864.843994,381.113556 
	C862.258179,390.447083 860.141418,399.625946 859.797668,409.414673 
	C859.417419,420.243469 866.851929,427.814026 876.470276,429.938507 
	C898.902283,434.893311 918.952026,429.252441 936.938599,415.523621 
	C951.069336,404.737854 961.442139,390.910095 967.180054,374.154022 
	C971.520874,361.478088 974.466431,348.322601 977.988037,335.368286 
	C983.675598,314.446564 989.327332,293.515106 994.992249,272.587250 
	C1000.995667,250.408936 1006.966309,228.221725 1013.008057,206.053894 
	C1018.283081,186.699280 1023.683655,167.378891 1028.943726,148.020279 
	C1035.011108,125.690010 1040.963501,103.328499 1047.009399,80.992378 
	C1050.049438,69.761452 1053.186157,58.556736 1056.356567,47.059647 
	C1097.343628,42.684902 1138.334473,38.309742 1180.296143,33.830952 
	C1179.016846,39.125927 1177.975098,43.908390 1176.702515,48.628609 
	C1168.152832,80.340729 1159.603638,112.053177 1150.955200,143.738449 
	C1144.182007,168.553482 1137.174194,193.304596 1130.440552,218.130249 
	C1124.170898,241.245667 1118.214722,264.446045 1111.957764,287.565033 
	C1105.237793,312.395325 1098.169922,337.132324 1091.561890,361.991882 
	C1087.735962,376.384766 1084.179565,390.868500 1081.134888,405.443573 
	C1078.811523,416.565948 1086.685303,427.434784 1098.389282,429.936798 
	C1121.821045,434.945953 1142.274780,428.532410 1160.816650,413.841705 
	C1171.079712,405.710297 1178.936768,395.614441 1184.584473,384.260345 
	C1189.351440,374.676758 1191.889526,363.927917 1194.922607,353.551147 
	C1200.141357,335.696533 1205.022339,317.742493 1209.963501,299.807678 
	C1217.354858,272.979401 1224.611450,246.113892 1232.047607,219.298141 
	C1237.450317,199.815262 1243.054199,180.388229 1248.554565,160.932388 
	C1248.898926,159.714539 1249.124146,158.463013 1249.407104,157.216888 
	C1288.607788,153.173843 1327.652832,149.146866 1367.099243,145.078476 
	C1349.692627,214.221924 1332.364990,282.955536 1315.100586,351.705078 
	C1311.353271,366.627655 1307.082397,381.477203 1304.461060,396.604431 
	C1302.598022,407.355621 1303.650879,418.252411 1312.891724,426.513733 
	C1317.658203,430.774963 1323.551880,431.984924 1329.163452,431.768738 
	C1340.444458,431.334045 1351.425293,428.453094 1360.683350,421.606842 
	C1371.482910,413.620850 1379.662964,403.373993 1386.292847,391.558807 
	C1394.774048,376.444427 1398.150391,359.738159 1402.910767,343.463776 
	C1408.633423,323.900208 1413.750244,304.159912 1419.179565,284.509979 
	C1425.426025,261.901764 1431.720093,239.306702 1438.006836,216.709641 
	C1443.340576,197.537964 1448.664673,178.363388 1454.125000,159.227737 
	C1454.389160,158.301529 1455.864258,157.198441 1456.874878,157.088226 
	C1467.303833,155.950867 1477.764160,155.101654 1488.194458,153.974899 
	C1502.671143,152.410980 1517.117432,150.562119 1531.599731,149.054321 
	C1543.026367,147.864639 1554.489624,147.027786 1565.931519,145.979324 
	C1568.011597,145.788712 1570.067261,145.333328 1572.567139,145.000092 
	C1573.000000,146.388885 1573.000000,147.777786 1572.635132,149.700348 
	C1571.852905,150.913666 1571.232666,151.542404 1571.047729,152.280304 
	C1566.601929,170.011230 1562.327271,187.785889 1557.767456,205.487167 
	C1549.938354,235.878448 1541.816406,266.194489 1534.042847,296.599731 
	C1526.827271,324.821899 1520.014648,353.146942 1512.827148,381.376434 
	C1504.325073,414.769257 1495.737915,448.141541 1486.950195,481.460114 
	C1479.817261,508.504242 1473.136475,535.708069 1464.762451,562.372192 
	C1457.474854,585.577087 1444.147339,605.339783 1425.321655,621.312317 
	C1403.532349,639.799255 1378.233398,649.443054 1350.250244,653.028748 
	C1346.477905,653.512085 1342.749023,654.334534 1339.000000,655.000000 
	C1325.312378,655.000000 1311.624878,655.000000 1297.468628,655.000000 
M1352.481812,530.015991 
	C1354.381470,522.887573 1356.281128,515.759216 1358.325073,508.089569 
	C1337.180176,513.752930 1317.049194,519.927734 1298.619507,530.733459 
	C1286.006226,538.128906 1275.394165,547.168274 1269.881348,561.293945 
	C1265.766479,571.837219 1267.091553,581.615601 1274.808472,587.194153 
	C1292.690186,600.120544 1311.082764,599.238708 1327.162476,584.202271 
	C1342.526855,569.834839 1347.923096,550.512024 1352.481812,530.015991 
z"/>
<path fill="#004EEA" opacity="1.000000" stroke="none" 
	d="
M315.531372,0.999999 
	C317.494659,1.333328 318.986176,1.942246 320.484406,1.959195 
	C348.934814,2.281044 376.735779,6.714893 403.576538,16.107199 
	C424.242340,23.338697 443.279419,33.732285 458.367950,49.995174 
	C470.100189,62.640484 477.790009,77.422447 480.058228,94.864258 
	C483.674164,122.669167 473.821594,145.902969 456.631317,166.907684 
	C442.143219,184.610672 423.974609,197.348083 403.520691,207.126297 
	C402.591339,207.570572 401.796631,208.296432 401.641266,208.404190 
	C413.924469,212.571625 426.735931,215.988815 438.744965,221.240814 
	C452.113251,227.087296 463.636505,235.867630 473.182007,247.315475 
	C483.665894,259.888702 490.250885,274.137604 493.365479,289.952759 
	C495.742950,302.025238 497.317841,314.238251 495.081360,326.655731 
	C493.090851,337.707581 492.445557,349.046906 489.848724,359.935486 
	C483.352295,387.174957 472.181061,412.556976 455.317596,434.968292 
	C438.125183,457.816711 416.822723,476.122467 390.424622,487.810516 
	C375.090302,494.599884 359.131989,499.607056 342.318756,500.924133 
	C328.832611,501.980621 315.253448,503.297760 301.783691,502.767883 
	C282.888153,502.024597 264.236847,499.080963 247.980545,488.011993 
	C236.768875,480.377899 231.448929,469.794678 230.928696,456.306488 
	C230.367645,441.760315 235.475662,428.865173 241.340469,416.031311 
	C249.112701,421.033112 256.540466,426.235718 264.371094,430.737518 
	C272.721222,435.537994 281.754791,438.585693 291.548706,439.023895 
	C304.660461,439.610504 317.379944,438.334930 329.179260,431.977295 
	C342.529480,424.784027 352.336365,414.089600 359.991699,401.176971 
	C369.915527,384.437897 375.375824,366.055267 377.701141,347.052155 
	C380.278137,325.992401 381.042847,304.675812 373.572144,284.131531 
	C365.613861,262.246521 350.232666,248.583496 327.609650,243.006638 
	C314.334534,239.734131 300.824615,239.619690 287.313446,240.081192 
	C279.453796,240.349640 271.620544,241.390152 263.246216,242.130035 
	C260.043152,253.958603 256.798126,265.928986 253.560501,277.901337 
	C248.366028,297.109924 243.221939,316.332275 237.973038,335.525970 
	C231.700165,358.463959 225.302658,381.367920 219.026398,404.304993 
	C211.980820,430.053589 205.014923,455.823975 197.998428,481.580536 
	C197.446289,483.607361 196.227753,485.609039 196.260300,487.607117 
	C196.334885,492.183929 193.568924,492.035004 190.352554,492.030212 
	C157.190277,491.981018 124.027885,492.000000 90.865532,492.000000 
	C85.720444,492.000000 80.575363,492.000000 74.630699,492.000000 
	C76.185951,485.616943 77.494087,479.687469 79.079002,473.832916 
	C90.746910,430.732605 102.472420,387.647858 114.175186,344.556976 
	C124.478645,306.618500 134.698700,268.657227 145.097580,230.744965 
	C155.923248,191.276764 166.931793,151.858734 177.832016,112.410934 
	C180.848053,101.495918 184.032227,90.614952 186.570251,79.587402 
	C187.394699,76.005180 189.335510,75.295547 192.101379,75.026009 
	C206.300293,73.642296 220.522781,72.484467 234.705688,70.956734 
	C251.613327,69.135490 268.479492,66.931259 285.382904,65.068146 
	C293.686066,64.152977 302.032745,63.633163 311.664124,62.824978 
	C298.576355,111.496750 285.675812,159.472275 272.315369,209.158188 
	C284.595490,207.154602 295.961578,205.974808 306.983887,203.350769 
	C325.605957,198.917511 341.822906,189.621048 356.430237,177.194489 
	C374.198486,162.078934 386.959045,143.781174 393.233673,121.281563 
	C398.961182,100.743767 396.230682,81.734657 382.340729,64.734596 
	C370.292480,49.988514 354.043732,42.791420 336.365784,38.063141 
	C323.849182,34.715347 311.078186,32.841526 298.052460,32.976021 
	C287.032379,33.089809 275.866638,31.873209 265.021484,33.255302 
	C247.158905,35.531681 229.376022,38.863506 211.795090,42.801918 
	C193.196487,46.968304 175.874191,54.869934 159.182663,64.001366 
	C137.763657,75.719063 119.487732,91.139732 105.016525,110.910248 
	C93.638504,126.454887 85.797104,143.761307 82.404449,162.591995 
	C79.023895,181.355606 77.457817,200.439178 84.024033,219.050247 
	C85.308182,222.689972 87.342857,226.065506 89.040016,229.558685 
	C89.789734,231.101776 90.561028,232.634384 91.940102,235.418579 
	C81.591370,234.905411 72.287544,235.279495 63.297451,233.776718 
	C53.145981,232.079788 42.885059,229.666473 33.371174,225.830139 
	C16.821730,219.156860 5.968607,206.952591 2.865694,188.772430 
	C2.769819,188.210693 2.119608,187.743561 1.363916,187.116165 
	C1.000000,186.555557 1.000000,186.111099 1.363981,185.187042 
	C1.485308,182.804947 1.242654,180.902481 1.000000,179.000000 
	C1.000000,176.629440 1.000000,174.258896 1.370918,171.291107 
	C1.494557,168.462585 1.247279,166.231293 1.000000,164.000000 
	C1.000000,163.555557 1.000000,163.111099 1.369434,162.211929 
	C2.153348,161.077042 2.835842,160.436615 2.943398,159.710968 
	C6.261867,137.322144 17.724989,118.934189 32.263119,102.472794 
	C46.214249,86.676064 62.463604,73.405983 80.329086,62.006561 
	C103.130684,47.457558 127.363235,36.046753 152.761032,27.015051 
	C179.064850,17.661161 205.921204,10.307674 233.708969,7.046375 
	C251.432938,4.966212 269.248505,3.669099 287.018463,1.973060 
	C288.364349,1.844605 289.673676,1.333326 291.000000,0.999999 
	C299.020905,1.000000 307.041809,1.000000 315.531372,0.999999 
z"/>
<path fill="#FFFFFF" opacity="1.000000" stroke="none" 
	d="
M1339.468628,655.000000 
	C1342.749023,654.334534 1346.477905,653.512085 1350.250244,653.028748 
	C1378.233398,649.443054 1403.532349,639.799255 1425.321655,621.312317 
	C1444.147339,605.339783 1457.474854,585.577087 1464.762451,562.372192 
	C1473.136475,535.708069 1479.817261,508.504242 1486.950195,481.460114 
	C1495.737915,448.141541 1504.325073,414.769257 1512.827148,381.376434 
	C1520.014648,353.146942 1526.827271,324.821899 1534.042847,296.599731 
	C1541.816406,266.194489 1549.938354,235.878448 1557.767456,205.487167 
	C1562.327271,187.785889 1566.601929,170.011230 1571.047729,152.280304 
	C1571.232666,151.542404 1571.852905,150.913666 1572.635132,150.117020 
	C1573.000000,318.233673 1573.000000,486.467316 1573.000000,655.000000 
	C1495.312622,655.000000 1417.625000,655.000000 1339.468628,655.000000 
z"/>
<path fill="#FFFFFF" opacity="1.000000" stroke="none" 
	d="
M290.531342,0.999999 
	C289.673676,1.333326 288.364349,1.844605 287.018463,1.973060 
	C269.248505,3.669099 251.432938,4.966212 233.708969,7.046375 
	C205.921204,10.307674 179.064850,17.661161 152.761032,27.015051 
	C127.363235,36.046753 103.130684,47.457558 80.329086,62.006561 
	C62.463604,73.405983 46.214249,86.676064 32.263119,102.472794 
	C17.724989,118.934189 6.261867,137.322144 2.943398,159.710968 
	C2.835842,160.436615 2.153348,161.077042 1.369434,161.878601 
	C1.000000,108.385429 1.000000,54.770859 1.000000,1.000000 
	C97.354172,1.000000 193.708420,1.000000 290.531342,0.999999 
z"/>
<path fill="#FFFFFF" opacity="1.000000" stroke="none" 
	d="
M1.000000,164.437485 
	C1.247279,166.231293 1.494557,168.462585 1.370918,170.846939 
	C1.000000,168.958328 1.000000,166.916641 1.000000,164.437485 
z"/>
<path fill="#FFFFFF" opacity="1.000000" stroke="none" 
	d="
M1.000000,179.428467 
	C1.242654,180.902481 1.485308,182.804947 1.363981,184.853714 
	C1.000000,183.285645 1.000000,181.571289 1.000000,179.428467 
z"/>
<path fill="#004EEA" opacity="1.000000" stroke="none" 
	d="
M729.807434,71.586731 
	C731.376099,88.319580 725.842712,101.936127 713.689636,112.737961 
	C703.882568,121.454704 692.191040,126.786530 679.358948,128.864578 
	C663.826965,131.379822 648.257019,131.078796 633.419739,124.944420 
	C617.325928,118.290497 604.411438,108.357010 598.880127,90.776711 
	C592.877930,71.700005 601.312683,52.335674 615.789185,41.104431 
	C628.602966,31.163097 643.182495,26.378601 659.637512,25.804871 
	C681.342712,25.048082 700.362000,30.783129 716.131836,45.778973 
	C723.320129,52.614445 727.718384,61.330185 729.807434,71.586731 
z"/>
<path fill="#FFFFFF" opacity="1.000000" stroke="none" 
	d="
M1352.272217,530.383606 
	C1347.923096,550.512024 1342.526855,569.834839 1327.162476,584.202271 
	C1311.082764,599.238708 1292.690186,600.120544 1274.808472,587.194153 
	C1267.091553,581.615601 1265.766479,571.837219 1269.881348,561.293945 
	C1275.394165,547.168274 1286.006226,538.128906 1298.619507,530.733459 
	C1317.049194,519.927734 1337.180176,513.752930 1358.325073,508.089569 
	C1356.281128,515.759216 1354.381470,522.887573 1352.272217,530.383606 
z"/>
</svg>