<svg width="33" height="33" viewBox="0 0 33 33" fill="none" xmlns="http://www.w3.org/2000/svg">
<path d="M16.4224 10.0781C17.5269 10.0781 18.4224 9.18269 18.4224 8.07812C18.4224 6.97356 17.5269 6.07812 16.4224 6.07812C15.3178 6.07812 14.4224 6.97356 14.4224 8.07812C14.4224 9.18269 15.3178 10.0781 16.4224 10.0781Z" fill="#656565"/>
<path d="M16.4224 18.0781C17.5269 18.0781 18.4224 17.1827 18.4224 16.0781C18.4224 14.9736 17.5269 14.0781 16.4224 14.0781C15.3178 14.0781 14.4224 14.9736 14.4224 16.0781C14.4224 17.1827 15.3178 18.0781 16.4224 18.0781Z" fill="#656565"/>
<path d="M16.4224 26.0781C17.5269 26.0781 18.4224 25.1827 18.4224 24.0781C18.4224 22.9736 17.5269 22.0781 16.4224 22.0781C15.3178 22.0781 14.4224 22.9736 14.4224 24.0781C14.4224 25.1827 15.3178 26.0781 16.4224 26.0781Z" fill="#656565"/>
</svg>
