<svg id="Layer_1" data-name="Layer 1" xmlns="http://www.w3.org/2000/svg" viewBox="0 0 800 400"><defs><style>.cls-1{fill:#f6f6f6;}.cls-2{fill:#0049f2;}</style></defs><rect class="cls-1" width="800" height="400"/><path class="cls-2" d="M251.56,132.53l-12.17,45.19H241c20.71,0,37.28-17.7,37.28-33,0-11.6-9.58-22-34.18-22-30.29,0-64.73,15.88-64.73,49.47,0,10.38,3.37,12,3.63,13.84-17.09,0-27.71-5.09-27.71-18.73,0-28.09,45.06-53.94,94-53.94,38.07,0,55.16,15.67,55.16,32.37,0,12-9.07,24.83-25.9,32.36,22,3.46,30.56,17.51,30.56,32.77,0,19.54-13.47,58.63-56.71,58.63-11.13,0-25.63-2.65-25.63-15.06,0-3.26,1-7.13,3.36-11.81,6.48,5.29,11.4,7.33,17.35,7.33,18.9,0,25.64-21.17,25.64-36.64,0-14.25-5.7-25.86-24.6-25.86-2.07,0-7.25.21-11.91.62l-21.24,78H178l35.21-129.46Z"/><path class="cls-2" d="M373,164.29,354.36,233.5a22.42,22.42,0,0,0-1,6.51c0,5.7,3.37,7.53,10.62,7.53,10.1,0,19.42-7.73,23.3-17.91h10.88c-14.76,33.18-40.4,37.66-54.38,37.66-15.53,0-27.7-7.33-27.7-24.43a53,53,0,0,1,2.07-13.23l17.6-65.34Zm-11.65-43.36c11.39,0,20.71,7.33,20.71,16.29s-9.32,16.08-20.71,16.08-20.46-7.13-20.46-16.08S350,120.93,361.35,120.93Z"/><path class="cls-2" d="M453.27,123.58,423.49,233.5a22.71,22.71,0,0,0-1,6.51c0,5.7,3.36,7.53,10.61,7.53,10.1,0,19.42-7.73,23.31-17.91h10.87c-14.76,33.18-40.39,37.66-54.37,37.66-15.54,0-27.71-7.33-27.71-24.43a53.49,53.49,0,0,1,2.07-13.23l27.71-102Z"/><path class="cls-2" d="M522.4,123.58,492.62,233.5a22.71,22.71,0,0,0-1,6.51c0,5.7,3.37,7.53,10.62,7.53,10.09,0,19.42-7.73,23.3-17.91h10.87C521.63,262.81,496,267.29,482,267.29c-15.54,0-27.71-7.33-27.71-24.43a53.49,53.49,0,0,1,2.07-13.23l27.71-102Z"/><path class="cls-2" d="M580.54,158.26,561.76,233.5a17.29,17.29,0,0,0-.78,5.09c0,4.68,1.82,8.95,7.77,8.95,10.1,0,16.83-7.73,20.72-17.91L608.3,162l36.46-3.73L613,282.35C605.26,311.46,583,317,565.9,317c-15.79,0-30.55-8.76-30.55-22,0-18.93,20.2-24.83,44.79-30.53l2.59-9c-11.13,10-22.78,11.81-31.59,11.81-15.53,0-27.7-7.33-27.7-24.43a53,53,0,0,1,2.07-13.23L544.34,162ZM560,298.84c5.18,0,11.91-3.87,15.27-15.88l3.11-12c-16.31,4.28-28.74,10.18-28.74,21.17C549.59,295,554.25,298.84,560,298.84Z"/></svg>